<svg xmlns="http://www.w3.org/2000/svg" xmlns:xlink="http://www.w3.org/1999/xlink" viewBox="0,0,256,256" width="48px" height="48px"><g fill="#eb4a4c" fill-rule="nonzero" stroke="none" stroke-width="1" stroke-linecap="butt" stroke-linejoin="miter" stroke-miterlimit="10" stroke-dasharray="" stroke-dashoffset="0" font-family="none" font-weight="none" font-size="none" text-anchor="none" style="mix-blend-mode: normal"><g transform="scale(4,4)"><path d="M13.97852,11.75586c-0.7312,0.06305 -1.39605,0.52955 -1.68555,1.24805c-2.138,5.317 -1.54548,10.30528 -1.14649,12.36328c-1.954,2.907 -3.01953,6.38181 -3.01953,9.88281c0,4.743 1.85652,9.20169 5.22852,12.55469c3.174,3.156 8.51723,5.19531 13.61523,5.19531h10.30859c5.098,0 10.44319,-2.03931 13.61719,-5.19531c3.372,-3.353 5.22852,-7.81169 5.22852,-12.55469c0,-3.787 -1.22952,-7.4893 -3.47852,-10.5293c0.304,-1.958 0.64487,-6.48519 -1.45312,-11.49219c-0.397,-0.947 -1.44569,-1.44363 -2.42969,-1.14062c-5.154,1.577 -8.40427,4.15933 -9.82227,5.48633c-0.125,-0.019 -0.25,-0.03669 -0.375,-0.05469c-3.719,-0.528 -8.88828,-0.52895 -12.86328,-0.00195c-0.295,0.04 -0.58981,0.08 -0.88281,0.125c-1.333,-1.498 -4.32561,-4.08855 -10.09961,-5.81055c-0.24725,-0.07375 -0.49845,-0.09719 -0.74219,-0.07617zM24.24219,32h16.01758c1.49,0 2.88931,0.58077 3.94531,1.63477c1.054,1.053 1.63477,2.45431 1.63477,3.94531v9.07422c-2.431,1.434 -5.62255,2.3457 -8.56055,2.3457h-10.30859c-2.852,0 -5.93394,-0.86356 -8.33594,-2.22656c0.065,-0.452 0.02734,-9.19336 0.02734,-9.19336c0,-1.49 0.58077,-2.89131 1.63477,-3.94531c1.039,-1.038 2.47531,-1.63477 3.94531,-1.63477zM24.23242,36c-1.397,0 -2.53125,1.792 -2.53125,4c0,2.208 1.13425,4 2.53125,4c1.397,0 2.53125,-1.792 2.53125,-4c0,-2.208 -1.13425,-4 -2.53125,-4zM40.32031,36c-1.397,0 -2.53125,1.792 -2.53125,4c0,2.208 1.13425,4 2.53125,4c1.397,0 2.53125,-1.792 2.53125,-4c0,-2.208 -1.13425,-4 -2.53125,-4z"></path></g></g></svg>