<svg xmlns="http://www.w3.org/2000/svg" width="279.302" height="49.108" viewBox="0 0 279.302 49.108">
    <defs>
        <style>.a{fill:#d0d8da;}</style>
    </defs>
    <g transform="translate(-590.435 204)">
        <g transform="translate(590.435 -204)">
            <g transform="translate(77.982 12.497)">
                <path class="a"
                      d="M-194.19-247.594h5.986v22.886h-5.986Zm16.623-.507a13.257,13.257,0,0,1,3.914.553,8.613,8.613,0,0,1,3.131,1.7,7.689,7.689,0,0,1,2.072,2.924,10.961,10.961,0,0,1,.737,4.213v14H-173.7v-12.939a5.7,5.7,0,0,0-1.4-4.259q-1.405-1.359-4.582-1.359a9.947,9.947,0,0,0-4.329.921,9.287,9.287,0,0,0-3.131,2.326,5.516,5.516,0,0,0-1.381,2.924l-.046-2.349a9.225,9.225,0,0,1,1.059-3.131,10.563,10.563,0,0,1,2.233-2.786,10.523,10.523,0,0,1,3.339-2A12.232,12.232,0,0,1-177.567-248.1Zm19.939,0a13.257,13.257,0,0,1,3.914.553,8.613,8.613,0,0,1,3.131,1.7,7.9,7.9,0,0,1,2.095,2.924,10.65,10.65,0,0,1,.76,4.213v14h-5.986v-12.939a5.641,5.641,0,0,0-1.428-4.259q-1.428-1.359-4.6-1.359a9.946,9.946,0,0,0-4.329.921,9.283,9.283,0,0,0-3.131,2.326,5.218,5.218,0,0,0-1.335,2.924l-.092-2.487a8.688,8.688,0,0,1,1.105-3.039,10.808,10.808,0,0,1,2.3-2.763,11.125,11.125,0,0,1,3.339-1.98A11.768,11.768,0,0,1-157.628-248.1Z"
                      transform="translate(194.19 248.101)"/>
                <path class="a"
                      d="M-47.532-224.2a12.876,12.876,0,0,1-6.194-1.5,11.37,11.37,0,0,1-4.421-4.19,11.783,11.783,0,0,1-1.635-6.24,11.723,11.723,0,0,1,1.658-6.309,11.517,11.517,0,0,1,4.49-4.167,13.541,13.541,0,0,1,6.423-1.5,11.442,11.442,0,0,1,6.377,1.589,9.161,9.161,0,0,1,3.523,4.306,15.992,15.992,0,0,1,1.106,6.078,13.979,13.979,0,0,1-.645,4.122,12.512,12.512,0,0,1-1.98,3.868,9.762,9.762,0,0,1-3.5,2.855A11.536,11.536,0,0,1-47.532-224.2Zm1.934-4.6a11.041,11.041,0,0,0,4.7-.921,7,7,0,0,0,3.039-2.578,6.949,6.949,0,0,0,1.059-3.822,7.063,7.063,0,0,0-1.082-3.983,6.8,6.8,0,0,0-3.039-2.486,11.67,11.67,0,0,0-4.674-.852,8.3,8.3,0,0,0-5.941,2,6.977,6.977,0,0,0-2.118,5.318,7.149,7.149,0,0,0,1.013,3.845,6.915,6.915,0,0,0,2.832,2.556A9.2,9.2,0,0,0-45.6-228.807Zm8.8-18.787h5.986v22.886h-5.572q-.23-1.8-.322-3.177T-36.8-230.6Z"
                      transform="translate(110.571 248.101)"/>
                <path class="a"
                      d="M40.689-223.807a15.024,15.024,0,0,1-6.562-1.356,9.988,9.988,0,0,1-4.4-4.015,12.437,12.437,0,0,1-1.566-6.423,12.941,12.941,0,0,1,1.52-6.423,10.473,10.473,0,0,1,4.351-4.208,14.056,14.056,0,0,1,6.654-1.5,12.418,12.418,0,0,1,2.049.166,18.029,18.029,0,0,1,1.957.443l11.558.056v5.426a14.846,14.846,0,0,1-4.766-.692,30.87,30.87,0,0,1-4.259-1.633l-.138-.388a15.272,15.272,0,0,1,2.947,2.187,10.7,10.7,0,0,1,2.233,2.99,8.565,8.565,0,0,1,.852,3.9A11.939,11.939,0,0,1,51.6-229.1a9.914,9.914,0,0,1-4.306,3.931A14.955,14.955,0,0,1,40.689-223.807ZM28.961-211.258v-2.164a7.286,7.286,0,0,1,1.151-4.352,6.2,6.2,0,0,1,3.339-2.256,18.183,18.183,0,0,1,5.272-.668h7.506a2.684,2.684,0,0,0,1.566-.391,1.253,1.253,0,0,0,.552-1.082q0-1.151-1.4-1.543a19.8,19.8,0,0,0-4.306-.484l2.9-.506a19.274,19.274,0,0,1,4.467.138,6.873,6.873,0,0,1,3.223,1.266,3.332,3.332,0,0,1,1.2,2.786,4.1,4.1,0,0,1-.368,1.727,3.573,3.573,0,0,1-1.2,1.4,6.175,6.175,0,0,1-2.233.921,15.864,15.864,0,0,1-3.477.323H40.012a7.094,7.094,0,0,0-3.707.829,3.169,3.169,0,0,0-1.358,2.947v1.1Zm11.731-16.807a8.513,8.513,0,0,0,3.975-.887,6.338,6.338,0,0,0,2.659-2.564,8.048,8.048,0,0,0,.947-4.02,8.369,8.369,0,0,0-.947-4.114,6.545,6.545,0,0,0-2.632-2.627,8.255,8.255,0,0,0-4-.917,8.443,8.443,0,0,0-4,.917,6.452,6.452,0,0,0-2.685,2.627,8.365,8.365,0,0,0-.947,4.114,8.044,8.044,0,0,0,.947,4.02,6.332,6.332,0,0,0,2.658,2.564A8.631,8.631,0,0,0,40.692-228.065Z"
                      transform="translate(55.859 247.869)"/>
                <path class="a"
                      d="M113.013-247.594H119v22.886h-5.986Zm16.623-.507a13.254,13.254,0,0,1,3.914.553,8.614,8.614,0,0,1,3.132,1.7,7.7,7.7,0,0,1,2.072,2.924,10.961,10.961,0,0,1,.736,4.213v14H133.5v-12.939a5.7,5.7,0,0,0-1.4-4.259q-1.406-1.359-4.582-1.359a9.944,9.944,0,0,0-4.329.921,9.285,9.285,0,0,0-3.132,2.326,5.519,5.519,0,0,0-1.382,2.924l-.046-2.349a9.217,9.217,0,0,1,1.059-3.131,10.556,10.556,0,0,1,2.233-2.786,10.522,10.522,0,0,1,3.338-2A12.232,12.232,0,0,1,129.636-248.1Z"
                      transform="translate(3.073 248.101)"/>
                <path class="a"
                      d="M218.274-234.88l.046,1.566a13.907,13.907,0,0,1-.46,1.864,13.679,13.679,0,0,1-1.128,2.6,12.943,12.943,0,0,1-1.957,2.647,9.417,9.417,0,0,1-2.947,2.072,9.846,9.846,0,0,1-4.144.806,15.067,15.067,0,0,1-3.707-.461,9.392,9.392,0,0,1-3.292-1.543,7.558,7.558,0,0,1-2.348-2.924,10.834,10.834,0,0,1-.875-4.651v-13.86h5.986v12.848a7.1,7.1,0,0,0,.714,3.476,3.843,3.843,0,0,0,2.1,1.773,9.473,9.473,0,0,0,3.269.507,8.143,8.143,0,0,0,4.283-1.082,9.741,9.741,0,0,0,2.924-2.648A9.952,9.952,0,0,0,218.274-234.88Zm5.664,11.005h-5.986V-246.76h5.986Z"
                      transform="translate(-49.463 247.267)"/>
                <path class="a"
                      d="M279.432-232.306h5.526a4.687,4.687,0,0,0,2.1,2.555,7.784,7.784,0,0,0,4.167.99,8.976,8.976,0,0,0,2.717-.322,2.322,2.322,0,0,0,1.335-.944,2.706,2.706,0,0,0,.368-1.4,1.9,1.9,0,0,0-.6-1.5,4.5,4.5,0,0,0-1.842-.852,29.929,29.929,0,0,0-3.178-.6q-1.933-.322-3.73-.783a13.548,13.548,0,0,1-3.177-1.22,6.234,6.234,0,0,1-2.187-1.935,4.958,4.958,0,0,1-.806-2.878,5.441,5.441,0,0,1,.806-2.947,6.651,6.651,0,0,1,2.256-2.165,11.8,11.8,0,0,1,3.407-1.335,18.4,18.4,0,0,1,4.214-.461,14.143,14.143,0,0,1,5.664.99,7.4,7.4,0,0,1,3.385,2.763,7.43,7.43,0,0,1,1.128,4.075h-5.3a3.814,3.814,0,0,0-1.474-2.464,6.084,6.084,0,0,0-3.407-.76,6.729,6.729,0,0,0-3.408.691,2.114,2.114,0,0,0-1.151,1.888,1.753,1.753,0,0,0,.714,1.5,5.75,5.75,0,0,0,2.118.852q1.4.323,3.523.691,1.8.369,3.431.829a13.728,13.728,0,0,1,2.924,1.174,5.661,5.661,0,0,1,2.049,1.888,5.365,5.365,0,0,1,.76,2.97,5.634,5.634,0,0,1-1.266,3.73,7.908,7.908,0,0,1-3.615,2.325,17.4,17.4,0,0,1-5.618.806,17.7,17.7,0,0,1-5-.622,11.592,11.592,0,0,1-3.477-1.612,8.508,8.508,0,0,1-2.141-2.118,7.376,7.376,0,0,1-1.036-2.141A4.249,4.249,0,0,1,279.432-232.306Z"
                      transform="translate(-100.445 248.101)"/>
            </g>
            <g transform="translate(0)">
                <path class="a"
                      d="M-353.32-244.651l-16.713,26.261-16.735-26.261h-6.584l5.111,22.375h6.584l-2.476-6.547,10.484,16.2,2.012,3.061h3.2l2-3.061,10.484-16.2-2.476,6.547h6.584l5.111-22.375Z"
                      transform="translate(396.075 258.451)"/>
                <path class="a"
                      d="M-379.592-254.065h3.363v-6.15l-9.457-14.85h-7.924l-4.5-6.106h-2.449l1.321,6.106h-.023l1.055,4.773,8.128.025Z"
                      transform="translate(400.557 281.171)"/>
                <path class="a"
                      d="M-302.836-281.171h-2.449l-4.5,6.106h-7.924l-9.457,14.85v6.15h3.363l10.484-16.2,8.128-.025,1.055-4.773h-.023Z"
                      transform="translate(354.898 281.171)"/>
            </g>
        </g>
    </g>
</svg>